<svg width="26" height="20" viewBox="0 0 26 20" fill="none" xmlns="http://www.w3.org/2000/svg">
<path d="M25 0.00872951C24.887 -0.00290983 24.773 -0.00290983 24.66 0.00872951H1.43953C1.29071 0.011021 1.14287 0.0333197 1 0.0750253L12.9834 12L25 0.00872951Z" fill="white"/>
<path d="M25.9025 1L14.0725 13.1849C13.768 13.4979 13.3562 13.6736 12.9269 13.6736C12.4976 13.6736 12.0857 13.4979 11.7812 13.1849L0.056875 1.09244C0.020832 1.22945 0.00172143 1.37063 0 1.51261V18.3193C0 18.7651 0.171205 19.1926 0.475951 19.5077C0.780698 19.8229 1.19402 20 1.625 20H24.375C24.806 20 25.2193 19.8229 25.524 19.5077C25.8288 19.1926 26 18.7651 26 18.3193V1.51261C25.9935 1.33753 25.9606 1.16457 25.9025 1ZM2.73813 18.3193H1.60875V17.1176L7.51562 11.0588L8.66125 12.2437L2.73813 18.3193ZM24.3587 18.3193H23.2213L17.2981 12.2437L18.4437 11.0588L24.3506 17.1176L24.3587 18.3193Z" fill="white"/>
</svg>
