<svg width="302" height="62" viewBox="0 0 302 62" fill="none" xmlns="http://www.w3.org/2000/svg">
<path fill-rule="evenodd" clip-rule="evenodd" d="M11.1215 9.43808H30.8743V12.0025H24.0927V52.1657H18.166V12.0025H11.1215V9.43808Z" fill="white"/>
<path fill-rule="evenodd" clip-rule="evenodd" d="M33.671 16.5571H38.607V32.9389H47.4621V16.5571H52.3981V52.1657H47.4621V34.9379H38.607V52.1657H33.671V16.5571Z" fill="white"/>
<path fill-rule="evenodd" clip-rule="evenodd" d="M56.1022 52.1613V16.5659H70.8314V18.5649H61.0426V32.9389H68.2056V34.9379H61.0426V50.2544H70.8314V52.1613H56.1022Z" fill="white"/>
<path fill-rule="evenodd" clip-rule="evenodd" d="M84.8066 9.17065C90.4659 9.17065 93.644 12.4453 94.3104 18.9988L91.7547 19.4153C91.0051 14.1154 88.5809 11.4677 84.4865 11.4677C82.5051 11.4677 80.8788 11.9455 79.6382 12.888C78.3845 13.8305 77.762 15.0492 77.762 16.544C77.762 17.4646 78.1214 18.4772 78.8272 19.5863L91.5311 34.3812C92.6796 35.6612 93.5038 36.9982 94.0123 38.3834C94.5252 39.7687 94.7882 41.1276 94.7882 42.4427C94.7882 43.7929 94.5252 45.0729 94.0123 46.2653C93.4994 47.4489 92.7454 48.4966 91.7678 49.4084C90.7903 50.3158 89.5979 51.0566 88.1951 51.6046C86.788 52.157 85.1967 52.4287 83.4082 52.4287C77.1527 52.4287 73.6764 49.1541 72.9926 42.6093L75.5614 42.1797C76.311 47.484 79.0376 50.1317 83.7282 50.1317C85.863 50.1317 87.6077 49.667 88.9316 48.7245C90.2686 47.782 90.9393 46.5502 90.9393 45.0554C90.9393 44.0296 90.5711 42.9206 89.8171 41.7501L77.1088 26.9552C76.0699 25.7497 75.3071 24.4609 74.8162 23.0844C74.312 21.7123 74.0666 20.349 74.0666 19.0032C74.0666 17.7232 74.2901 16.4826 74.7329 15.2903C75.1756 14.0935 75.8332 13.0458 76.6792 12.1384C77.5384 11.231 78.5861 10.5121 79.8311 9.97725C81.0848 9.44244 82.5051 9.17504 84.1095 9.17504H84.8066V9.17065Z" fill="white"/>
<path fill-rule="evenodd" clip-rule="evenodd" d="M101.82 42.8197H109.872L105.914 26.4905L101.82 42.8197ZM106.396 16.5571H109.075L117.794 52.1613H112.191L110.363 44.7748H101.324L99.505 52.1613H97.5411L106.396 16.5571Z" fill="white"/>
<path d="M125.132 16.5571H120.196V52.1613H125.132V16.5571Z" fill="white"/>
<path fill-rule="evenodd" clip-rule="evenodd" d="M128.88 16.5571H133.816V50.2544H143.609V52.1657H128.88V16.5571Z" fill="white"/>
<path fill-rule="evenodd" clip-rule="evenodd" d="M146.086 52.1614V9.44684H163.761V11.8491H152.013V29.0901H160.609V31.4923H152.013V52.1614H146.086Z" fill="white"/>
<path fill-rule="evenodd" clip-rule="evenodd" d="M169.078 42.8197H177.131L173.168 26.4905L169.078 42.8197ZM173.655 16.5571H176.333L185.048 52.1613H179.446L177.618 44.7748H168.583L166.764 52.1613H164.8L173.655 16.5571Z" fill="white"/>
<path fill-rule="evenodd" clip-rule="evenodd" d="M197.195 18.3413C193.872 18.3413 192.211 21.0066 192.211 26.3503V43.3458C192.211 48.0407 193.929 50.4123 197.375 50.4692C200.579 50.4692 202.429 48.2599 202.938 43.8411L205.068 44.2006C204.511 49.6539 201.702 52.3805 196.656 52.3805C190.396 52.3805 187.271 49.3251 187.271 43.2143V26.3459C187.271 19.6696 190.383 16.3336 196.617 16.3336C200.15 16.3336 202.644 17.4865 204.139 19.8055L201.772 20.9584C201.005 19.2137 199.475 18.3413 197.195 18.3413Z" fill="white"/>
<path fill-rule="evenodd" clip-rule="evenodd" d="M206.918 16.5571H223.379V18.6964H217.724V52.1657H212.792V18.6964H206.918V16.5571Z" fill="white"/>
<path fill-rule="evenodd" clip-rule="evenodd" d="M234.566 18.3413C231.646 18.3413 230.195 21.0066 230.195 26.3503V43.3458C230.195 48.0407 231.699 50.4123 234.693 50.4692C237.608 50.4692 239.059 47.7733 239.059 42.3682V25.3727C239.064 20.6866 237.56 18.3413 234.566 18.3413ZM234.658 52.3805C228.394 52.3805 225.264 49.3251 225.264 43.2143V26.3459C225.264 19.6696 228.376 16.3336 234.61 16.3336C240.865 16.3336 244.004 19.389 244.004 25.4998V42.3682C244 49.0489 240.887 52.3805 234.658 52.3805Z" fill="white"/>
<path fill-rule="evenodd" clip-rule="evenodd" d="M252.456 33.0266H255.573C259.364 33.0266 261.385 30.5981 261.622 25.7322C261.385 20.954 259.364 18.5693 255.573 18.5693H252.456V33.0266ZM261.311 41.7019C261.311 37.1955 259.4 34.9335 255.568 34.9335H252.451V52.1613H247.515V16.5659H254.411C258.378 16.5659 261.337 17.3111 263.257 18.8147C265.186 20.3096 266.155 22.5759 266.155 25.5919C266.155 29.695 263.906 32.5093 259.395 34.0524C263.577 34.8458 265.852 37.533 266.242 42.1008V52.1613H261.306V41.7019H261.311Z" fill="white"/>
<path fill-rule="evenodd" clip-rule="evenodd" d="M281.401 34.8064L288.696 16.5571H290.874L282.107 38.0547V52.1613H277.171V38.9489L268.802 16.5571H275.032L281.401 34.8064Z" fill="white"/>
<path fill-rule="evenodd" clip-rule="evenodd" d="M298.116 3.88393H3.87955V57.7198H298.112V3.88393H298.116ZM301.996 0.990711V61.5994H0V0H302V0.990711H301.996ZM299.107 2.88884H2.88884V58.7105H299.111V2.88884H299.107ZM0.990711 0.990711H301.001V60.6087H0.990711V0.990711Z" fill="white"/>
</svg>
