<svg width="28" height="16" viewBox="0 0 28 16" fill="none" xmlns="http://www.w3.org/2000/svg">
<path d="M27.4286 13.9104C27.4285 14.3236 27.3076 14.7276 27.0812 15.0712C26.8548 15.4148 26.5331 15.6826 26.1567 15.8407C25.7803 15.9988 25.3661 16.0402 24.9665 15.9596C24.5669 15.879 24.1999 15.6801 23.9118 15.3879L13.7142 5.04497L3.51665 15.388C3.13032 15.7798 2.60635 16 2.06 16C1.51365 16 0.989684 15.7798 0.603358 15.388C0.217033 14.9961 -1.99318e-06 14.4646 -9.13271e-08 13.9104C1.81053e-06 13.3562 0.21704 12.8247 0.603368 12.4328L12.2576 0.612247C12.4489 0.418147 12.6759 0.264174 12.9259 0.159122C13.1758 0.0540709 13.4437 3.66032e-07 13.7142 3.54206e-07C13.9848 3.4238e-07 14.2527 0.0540708 14.5026 0.159122C14.7525 0.264174 14.9796 0.418147 15.1709 0.612247L26.825 12.4328C27.0166 12.6266 27.1686 12.8569 27.2721 13.1105C27.3757 13.3641 27.4289 13.6359 27.4286 13.9104Z" fill="white"/>
</svg>
